# xmcd
#
# Track frame offsets:
#        150
#        13282
#        28117
#        47615
#        63175
#        90570
#        104292
#        126875
#        140037
#        164402
#        179635
#        204700
#        222747
#        241732
#        268327
#        297223
#
# Disc length: 4379 seconds
#
# Revision: 0
# Processed by: cddbd v1.5.1PL0 Copyright (c) Steve Scherf et al.
# Submitted via: ExactAudioCopy v0.95a5
#
DISCID=fb111910
DTITLE=at the drive-in - relationship of command
DYEAR=2000
DGENRE=Rock
TTITLE0=arcarsenal
TTITLE1=pattern against user
TTITLE2=one armed scissor
TTITLE3=sleepwalk capsules
TTITLE4=invalid litter dept.
TTITLE5=mannequin republic
TTITLE6=enfilade
TTITLE7=rolodex propaganda
TTITLE8=quarantined
TTITLE9=cosmonaut
TTITLE10=non-zero possibility
TTITLE11=extracurricular
TTITLE12=catacombs
TTITLE13=quarantined (steve lamacq version)
TTITLE14=one armed scissor (steve lamacq version)
TTITLE15=CD EXTRA
EXTD=
EXTT0=
EXTT1=
EXTT2=
EXTT3=
EXTT4=
EXTT5=
EXTT6=
EXTT7=
EXTT8=
EXTT9=
EXTT10=
EXTT11=
EXTT12=
EXTT13=
EXTT14=
EXTT15=
PLAYORDER=
